# xmcd
#
# Track frame offsets: 
#        150
#        13127
#        25010
#        37250
#        48340
#        60987
#        76025
#        89917
#        102332
#        116047
#        128667
#        142312
#        154977
#        167392
#        182015
#        195315
#        213420
#        228050
#        249067
#        262577
#        275765
#        291012
#        305512
#
# Disc length: 4245 seconds
#
# Revision: 4
# Processed by: cddbd v1.5.2PL0 Copyright (c) Steve Scherf et al.
# Submitted via: ExactAudioCopyFreeDBPlugin 1.0
#
DISCID=36109317
DTITLE=Percy Sledge - It Tears Me Up:  The Best of Percy Sledge
DYEAR=1992
DGENRE=Soul
TTITLE0=When a Man Loves a Woman
TTITLE1=I'm Hanging Up My Heart
TTITLE2=Put a Little Lovin' on Me
TTITLE3=Love Me Like You Mean It
TTITLE4=It Tears Me Up
TTITLE5=Warm and Tender Love
TTITLE6=Love Me Tender
TTITLE7=The Dark End of the Street
TTITLE8=Take Time to Know Her
TTITLE9=Try a Little Tenderness
TTITLE10=Bless Your Sweet Little Soul
TTITLE11=True Love Travels on a Gravel Road
TTITLE12=Sudden Stop
TTITLE13=Stop the World Tonight
TTITLE14=It's All Wrong But It's Alright
TTITLE15=Drown in My Own Tears
TTITLE16=Out of Left Field
TTITLE17=Kind Woman
TTITLE18=Cover Me
TTITLE19=That's the Way I Want to Live My Life
TTITLE20=Push Mr. Pride Aside
TTITLE21=It Can't Be Stopped
TTITLE22=Rainbow Road
EXTD=
EXTT0=
EXTT1=
EXTT2=
EXTT3=
EXTT4=
EXTT5=
EXTT6=
EXTT7=
EXTT8=
EXTT9=
EXTT10=
EXTT11=
EXTT12=
EXTT13=
EXTT14=
EXTT15=
EXTT16=
EXTT17=
EXTT18=
EXTT19=
EXTT20=
EXTT21=
EXTT22=
PLAYORDER=
